<?xml version="1.0" encoding="utf-8"?>
<!-- Generator: Adobe Illustrator 27.1.1, SVG Export Plug-In . SVG Version: 6.00 Build 0)  -->
<svg version="1.1" id="Layer_2_00000037675057719337178480000012470093440412589969_"
	 xmlns="http://www.w3.org/2000/svg" xmlns:xlink="http://www.w3.org/1999/xlink" x="0px" y="0px" viewBox="0 0 720.5 162.2"
	 style="enable-background:new 0 0 720.5 162.2;" xml:space="preserve">
<style type="text/css">
	.st0{fill:url(#SVGID_1_);}
	.st1{font-family:'ABCRepro-Screen';}
	.st2{font-size:94.0749px;}
</style>
<linearGradient id="SVGID_1_" gradientUnits="userSpaceOnUse" x1="0" y1="82.92" x2="162.16" y2="82.92" gradientTransform="matrix(1 0 0 -1 0 164)">
	<stop  offset="0" style="stop-color:#6974DC"/>
	<stop  offset="0.31" style="stop-color:#6B6DD2"/>
	<stop  offset="0.83" style="stop-color:#705BB9"/>
	<stop  offset="0.99" style="stop-color:#7355B0"/>
</linearGradient>
<path class="st0" d="M3.4,91.2c1.9,0,3.4-1.5,3.4-3.4V74.3c0-1.9-1.5-3.4-3.4-3.4S0,72.5,0,74.3v13.5C0,89.7,1.5,91.2,3.4,91.2z
	 M19.4,56.6v49c0,1.9,1.5,3.4,3.4,3.4s3.4-1.5,3.4-3.4v-49c0-1.9-1.5-3.4-3.4-3.4S19.4,54.7,19.4,56.6L19.4,56.6z M38.8,38.8v84.5
	c0,1.9,1.5,3.4,3.4,3.4s3.4-1.5,3.4-3.4V38.8c0-1.9-1.5-3.4-3.4-3.4C40.4,35.5,38.8,37,38.8,38.8z M58.3,21.1v119.9
	c0,1.9,1.5,3.4,3.4,3.4s3.4-1.5,3.4-3.4V21.1c0-1.9-1.5-3.4-3.4-3.4S58.3,19.3,58.3,21.1z M81.1,0c-1.9,0-3.4,1.5-3.4,3.4v155.4
	c0,1.9,1.5,3.4,3.4,3.4s3.4-1.5,3.4-3.4V3.4C84.5,1.5,82.9,0,81.1,0L81.1,0z M158.8,70.9c-1.9,0-3.4,1.5-3.4,3.4v13.5
	c0,1.9,1.5,3.4,3.4,3.4s3.4-1.5,3.4-3.4V74.3C162.2,72.5,160.7,70.9,158.8,70.9L158.8,70.9z M142.7,105.6v-49c0-1.9-1.5-3.4-3.4-3.4
	s-3.4,1.5-3.4,3.4v49c0,1.9,1.5,3.4,3.4,3.4S142.7,107.4,142.7,105.6z M119.9,35.5c-1.9,0-3.4,1.5-3.4,3.4v84.5
	c0,1.9,1.5,3.4,3.4,3.4s3.4-1.5,3.4-3.4V38.8C123.3,37,121.8,35.5,119.9,35.5L119.9,35.5L119.9,35.5z M97.1,21.1v119.9
	c0,1.9,1.5,3.4,3.4,3.4s3.4-1.5,3.4-3.4V21.1c0-1.9-1.5-3.4-3.4-3.4S97.1,19.3,97.1,21.1z"/>
<text transform="matrix(1 0 0 1 215.7983 105.1621)" class="st1 st2">echoScribe</text>
</svg>
