<?xml version="1.0" encoding="UTF-8"?><svg id="Layer_2" xmlns="http://www.w3.org/2000/svg" xmlns:xlink="http://www.w3.org/1999/xlink" viewBox="0 0 700 162.16"><defs><style>.cls-1{fill:url(#linear-gradient);}</style><linearGradient id="linear-gradient" x1="0" y1="81.08" x2="162.16" y2="81.08" gradientUnits="userSpaceOnUse"><stop offset="0" stop-color="#6974dc"/><stop offset=".31" stop-color="#6b6dd2"/><stop offset=".83" stop-color="#705bb9"/><stop offset=".99" stop-color="#7355b0"/></linearGradient></defs><g id="Layer_1-2"><g><path class="cls-1" d="m3.38,91.22c1.87,0,3.38-1.51,3.38-3.38v-13.51c0-1.87-1.51-3.38-3.38-3.38s-3.38,1.51-3.38,3.38v13.51c0,1.87,1.51,3.38,3.38,3.38Zm16.05-34.63v48.99c0,1.87,1.51,3.38,3.38,3.38s3.38-1.51,3.38-3.38v-48.99c0-1.87-1.51-3.38-3.38-3.38s-3.38,1.51-3.38,3.38h0Zm19.42-17.74v84.46c0,1.87,1.51,3.38,3.38,3.38s3.38-1.51,3.38-3.38V38.85c0-1.87-1.51-3.38-3.38-3.38-1.86,0-3.38,1.51-3.38,3.38Zm19.43-17.73v119.93c0,1.87,1.51,3.38,3.38,3.38s3.38-1.51,3.38-3.38V21.12c0-1.87-1.51-3.38-3.38-3.38s-3.38,1.51-3.38,3.38ZM81.08,0c-1.87,0-3.38,1.51-3.38,3.38v155.4c0,1.87,1.51,3.38,3.38,3.38s3.38-1.51,3.38-3.38V3.38C84.46,1.51,82.95,0,81.08,0h0Zm77.7,70.95c-1.87,0-3.38,1.51-3.38,3.38v13.51c0,1.87,1.51,3.38,3.38,3.38s3.38-1.51,3.38-3.38v-13.51c0-1.87-1.51-3.38-3.38-3.38h0Zm-16.05,34.63v-48.99c0-1.87-1.51-3.38-3.38-3.38s-3.38,1.51-3.38,3.38v48.99c0,1.87,1.51,3.38,3.38,3.38s3.38-1.51,3.38-3.38Zm-22.8-70.1c-1.87,0-3.38,1.51-3.38,3.38v84.46c0,1.87,1.51,3.38,3.38,3.38s3.38-1.51,3.38-3.38V38.85c0-1.86-1.51-3.38-3.38-3.38h0Zm-22.81-14.36v119.93c0,1.87,1.51,3.38,3.38,3.38s3.38-1.51,3.38-3.38V21.12c0-1.87-1.51-3.38-3.38-3.38s-3.38,1.51-3.38,3.38Z"/><g><path d="m220.76,82.12c0-14.94,8.74-24.72,22.46-24.72s22.93,10.72,22.18,26.32h-36.85c.28,10.24,5.64,16.35,14.48,16.35,7.8,0,11.66-4.04,13.44-9.12h8.08c-1.6,6.67-7.61,15.6-21.34,15.6s-22.46-9.77-22.46-24.44Zm36.37-4.42c-.47-9.49-6.58-14.1-13.91-14.1-8.08,0-13.44,4.7-14.38,14.1h28.29Z"/><path d="m274.62,82.22c0-14.47,10.06-24.81,23.5-24.81,14.47,0,21.62,9.4,22.75,17.76h-8.08c-1.41-6.96-6.2-11.28-14.66-11.28-9.21,0-15.41,6.86-15.41,18.23s6.39,17.95,15.41,17.95,13.54-5.08,14.76-11.94h7.99c-.75,7.8-7.43,18.42-22.75,18.42-14,0-23.5-10.53-23.5-24.34Z"/><path d="m332.81,38.89h7.8v26.22c1.79-3.2,6.39-7.71,14.76-7.71,10.06,0,17.01,6.2,17.01,17.76v29.98h-7.8v-28.57c0-9.02-4.23-12.78-11.28-12.78-8.93,0-12.69,7.24-12.69,16.54v24.81h-7.8V38.89Z"/><path d="m384.33,81.93c0-14.57,10.34-24.53,24.25-24.53s24.16,9.96,24.16,24.53-10.24,24.63-24.16,24.63-24.25-10.06-24.25-24.63Zm24.25,18.14c9.68,0,16.17-7.61,16.17-18.23s-6.39-17.95-16.17-17.95-16.26,7.14-16.26,17.95,6.48,18.23,16.26,18.23Z"/><path d="m441.48,85.13h8.08c.75,6.77,5.55,14.38,18.33,14.38,11.75,0,17.01-5.83,17.01-11.75s-3.1-9.96-14.19-12.03l-6.96-1.32c-13.91-2.44-19.46-8.46-19.46-18.42s8.55-18.52,22.47-18.52c16.92,0,24.06,10.43,25.09,20.21h-8.18c-1.32-7.05-5.83-13.35-16.82-13.35-10.34,0-14.76,5.92-14.76,11,0,6.2,3.29,9.12,13.54,11l6.96,1.32c13.25,2.35,20.96,8.65,20.96,19.55s-9.87,19.36-25.66,19.36c-16.73,0-25.66-9.68-26.41-21.43Z"/><path d="m502.96,82.22c0-14.47,10.06-24.81,23.5-24.81,14.47,0,21.62,9.4,22.75,17.76h-8.08c-1.41-6.96-6.2-11.28-14.66-11.28-9.21,0-15.42,6.86-15.42,18.23s6.39,17.95,15.42,17.95,13.54-5.08,14.76-11.94h7.99c-.75,7.8-7.42,18.42-22.75,18.42-14,0-23.5-10.53-23.5-24.34Z"/><path d="m561.15,58.81h7.61v9.12c1.97-4.32,6.86-9.59,15.51-9.59h1.32v7.9h-2.16c-10.06,0-14.47,6.02-14.47,15.88v23.03h-7.8v-46.34Z"/><path d="m599.13,38.32c3.29,0,5.26,2.44,5.26,5.08,0,2.82-1.97,5.26-5.26,5.26s-5.17-2.44-5.17-5.26c0-2.63,1.79-5.08,5.17-5.08Zm-3.85,20.49h7.8v46.34h-7.8v-46.34Z"/><path d="m618.87,58.81h7.61v7.61c1.22-2.44,6.48-9.02,17.11-9.02,13.44,0,22.75,9.87,22.75,24.63s-9.31,24.53-22.84,24.53c-9.59,0-14.94-4.7-16.82-8.27v22.84h-7.8v-62.32Zm23.5,41.17c9.49,0,15.98-6.86,15.98-17.95s-6.49-18.05-15.98-18.05-16.26,7.14-16.26,18.05,6.67,17.95,16.26,17.95Z"/><path d="m680.92,91.61v-26.79h-8.46v-6.02h8.46v-11.75h7.71v11.75h11.37v6.02h-11.37v27.07c0,4.89,2.44,6.58,6.77,6.58h4.6v6.67h-6.96c-7.71,0-12.12-4.79-12.12-13.54Z"/></g></g></g></svg>